<?xml version="1.0" encoding="utf-8"?>
<!-- Generator: Adobe Illustrator 28.3.0, SVG Export Plug-In . SVG Version: 6.00 Build 0)  -->
<svg version="1.1" id="Livello_1" xmlns="http://www.w3.org/2000/svg" xmlns:xlink="http://www.w3.org/1999/xlink" x="0px" y="0px"
	 viewBox="0 0 100 100" style="enable-background:new 0 0 100 100;" xml:space="preserve">
<style type="text/css">
	.st0{fill:#1B2533;}
	.st1{fill:#DFEAF8;}
	.st2{fill:#FF6827;}
	.st3{fill:#FFD0C0;}
	.st4{fill:none;stroke:#1B2533;stroke-width:8;stroke-linecap:round;stroke-linejoin:round;stroke-miterlimit:10;}
	.st5{fill:none;stroke:#FFFFFF;stroke-width:8;stroke-linecap:round;stroke-linejoin:round;stroke-miterlimit:10;}
</style>
<image style="overflow:visible;" width="329" height="427" xlink:href="E63E841C.jpg"  transform="matrix(1.0499 0 0 1.0499 -360.6551 206.39)">
</image>
<rect x="-280.9" y="-115.4" class="st0" width="42.5" height="42.5"/>
<rect x="-238.4" y="-115.4" class="st1" width="42.5" height="42.5"/>
<rect x="-191.2" y="-115.4" class="st2" width="42.5" height="42.5"/>
<rect x="-148.7" y="-115.4" class="st3" width="42.5" height="42.5"/>
<g>
	<path class="st2" d="M-69.1-110.1v31.9H-101v-31.9H-69.1 M-63.8-115.4h-42.5v42.5h42.5V-115.4L-63.8-115.4z"/>
</g>
<g>
	<path class="st4" d="M-187.3,41v47.6c0,3.1-2.6,5.7-5.7,5.7h-75.8c-3.1,0-5.7-2.6-5.7-5.7V41c0-1.8,0.8-3.4,2.2-4.5l37.9-29.7
		c2.1-1.6,5-1.6,7,0l37.9,29.7C-188.1,37.6-187.3,39.3-187.3,41z"/>
	<line class="st4" x1="-257.2" y1="76.2" x2="-204.6" y2="76.2"/>
</g>
<g>
	<path class="st0" d="M77.7,44.4L52.3,24.6c-1.4-1.1-3.3-1.1-4.7,0L22.3,44.4c-0.9,0.7-1.5,1.8-1.5,3v31.8c0,2.1,1.7,3.8,3.8,3.8
		h50.6c2.1,0,3.8-1.7,3.8-3.8V47.4C79.1,46.2,78.6,45.1,77.7,44.4z M62.8,60.4H54v8.8c0,2.2-1.8,4-4,4c-2.2,0-4-1.8-4-4v-8.8h-8.8
		c-2.2,0-4-1.8-4-4c0-2.2,1.8-4,4-4H46v-8.8c0-2.2,1.8-4,4-4c2.2,0,4,1.8,4,4v8.8h8.8c2.2,0,4,1.8,4,4C66.8,58.6,65,60.4,62.8,60.4z
		"/>
</g>
<path class="st4" d="M-57.4,43.5v39.3c0,6.9-5.6,12.6-12.5,12.6h-53c-6.9,0-12.6-5.6-12.6-12.6v-53c0-6.9,5.6-12.5,12.6-12.5h39.4"
	/>
<path class="st4" d="M-99,39.2l20.4-0.9c0,0-10.7,16.6-26.8,22.3c-16.1,5.7-29.9,3.4-29.9,3.4"/>
<line class="st4" x1="-78.6" y1="57.7" x2="-78.6" y2="38.3"/>
<line class="st4" x1="-57.4" y1="17.4" x2="-57.4" y2="30.2"/>
<line class="st4" x1="-57.4" y1="4.6" x2="-57.4" y2="17.4"/>
<line class="st4" x1="-57.4" y1="17.4" x2="-70.2" y2="17.4"/>
<line class="st4" x1="-44.6" y1="17.4" x2="-57.4" y2="17.4"/>
<path class="st4" d="M89-130.8v39.3c0,6.9-5.6,12.6-12.5,12.6h-53c-6.9,0-12.6-5.6-12.6-12.6v-53c0-6.9,5.6-12.5,12.6-12.5h39.4"/>
<path class="st4" d="M47.4-135.1l20.4-0.9c0,0-10.7,16.6-26.8,22.3c-16.1,5.7-29.9,3.4-29.9,3.4"/>
<line class="st4" x1="67.7" y1="-116.6" x2="67.7" y2="-136.1"/>
<line class="st4" x1="89" y1="-157" x2="89" y2="-144.2"/>
<line class="st4" x1="89" y1="-169.8" x2="89" y2="-157"/>
<line class="st4" x1="89" y1="-157" x2="76.2" y2="-157"/>
<line class="st4" x1="101.8" y1="-157" x2="89" y2="-157"/>
<g>
	<path class="st0" d="M93.9,33.4L56,3.7C52.4,1,47.5,1,44,3.7L6.1,33.4C3.8,35.3,2.4,38,2.4,41v47.6c0,5.3,4.3,9.7,9.7,9.7h75.8
		c5.3,0,9.7-4.3,9.7-9.7V41C97.6,38,96.2,35.3,93.9,33.4z M89.6,88.6c0,0.9-0.8,1.7-1.7,1.7H12.1c-0.9,0-1.7-0.8-1.7-1.7V41
		c0-0.5,0.2-1,0.6-1.3L48.9,10c0.3-0.2,0.7-0.4,1.1-0.4s0.7,0.1,1,0.4l37.9,29.7c0.4,0.3,0.7,0.8,0.7,1.3V88.6z"/>
</g>
<path class="st0" d="M241.5-73.6v31.8c0,2.1-1.7,3.8-3.8,3.8h-50.7c-2.1,0-3.8-1.7-3.8-3.8v-31.8c0-1.2,0.5-2.3,1.5-3L210-96.4
	c1.4-1.1,3.3-1.1,4.7,0l25.3,19.8C241-75.9,241.5-74.8,241.5-73.6z"/>
<line class="st5" x1="212.4" y1="-64.6" x2="212.4" y2="-51.8"/>
<line class="st5" x1="212.4" y1="-77.4" x2="212.4" y2="-64.6"/>
<line class="st5" x1="212.4" y1="-64.6" x2="199.6" y2="-64.6"/>
<line class="st5" x1="225.2" y1="-64.6" x2="212.4" y2="-64.6"/>
<path class="st4" d="M256-80v47.6c0,3.1-2.6,5.7-5.7,5.7h-75.8c-3.1,0-5.7-2.6-5.7-5.7V-80c0-1.8,0.8-3.4,2.2-4.5l37.9-29.7
	c2.1-1.6,5-1.6,7,0l37.9,29.7C255.2-83.4,256-81.7,256-80z"/>
<text transform="matrix(1 0 0 1 -254.7775 -13.0808)" class="st0" style="font-family:'GendyRegular'; font-size:18.5399px;">HOME</text>
<text transform="matrix(1 0 0 1 -140.0002 -13.0808)" class="st0" style="font-family:'GendyRegular'; font-size:18.5399px;">DASHBOARD</text>
<text transform="matrix(1 0 0 1 33.1109 -13.0808)" class="st0" style="font-family:'GendyRegular'; font-size:18.5399px;">ADD</text>
</svg>
