<?xml version="1.0" encoding="utf-8"?>
<!-- Generator: Adobe Illustrator 28.3.0, SVG Export Plug-In . SVG Version: 6.00 Build 0)  -->
<svg version="1.1" id="Livello_1" xmlns="http://www.w3.org/2000/svg" xmlns:xlink="http://www.w3.org/1999/xlink" x="0px" y="0px"
	 viewBox="0 0 1080 1080" style="enable-background:new 0 0 1080 1080;" xml:space="preserve">
<style type="text/css">
	.st0{fill-rule:evenodd;clip-rule:evenodd;fill:#FF6827;}
	.st1{fill-rule:evenodd;clip-rule:evenodd;fill:#1B2533;}
	.st2{fill-rule:evenodd;clip-rule:evenodd;fill:#FFFFFF;}
</style>
<g>
	<g>
		<g>
			<polygon class="st0" points="583,539.3 505.6,614.1 428.2,614.1 428.2,463.9 505.6,463.9 			"/>
		</g>
		<path class="st1" d="M1006.2,371.3c-8.3-57.4-18.9-95.6-36.5-131.7c-15.2-31-31.7-53.7-55.8-77.1c-21.7-21-45.3-37.4-74.4-51.7
			c-49.5-24.2-103.2-37.1-170.9-41.1c-28.6-1.7-31.3-1.8-54.1-2.8c-12.3-0.5-26.7-1.2-32-1.4c-12.2-0.6-88.4-1.5-88.9-1
			c-0.2,0.2-9.7,0.6-21,0.9c-72.5,2.1-148.4,13.8-196,30.4c-47.2,16.4-84.2,39.4-115.5,71.5c-19.4,20-33.7,40-46.6,65.2
			C93.9,273.3,83.5,314,73.8,391.7c-7,55.6-9.3,95.8-9.2,156.2c0.2,72.3,6.2,138.5,18.8,208.4c9.6,53.2,28.1,95.6,58.8,134.7
			c9.8,12.5,10.7,13.4,21.5,24.6c38.9,39.6,85.3,66.1,139.9,79.7c27.8,6.9,70.4,13.3,109.5,16.1c37.6,2.8,89,4.2,153.5,4.2
			c129.5,0,210.9-13.3,275.8-45.3c28.6-14.1,51-30.1,73.8-53.1c33.2-33.1,53.8-67.2,69.6-114.6c17.6-52.9,25.1-99.6,27.1-168.6
			c0.3-11.3,0.7-20.9,0.9-21.1c0.6-1,1.8-64.1,1.8-91.1C1015.4,461,1012.7,415.8,1006.2,371.3z M745.2,719.7
			c-21.5,52.8-70.2,85.6-127.3,85.6H358.6v-69.6h259.3c28.6,0,52.1-15.8,62.8-42.3c10.8-26.4,5-54.1-15.5-74.1l-32.4-31.5
			l-99.1,95.7H358.6V394.3h175.3l99.2,96.6l31.2-30.2c24.2-23.4,24-53.6,15.7-74.1c-8.3-20.5-29.1-42.4-62.9-42.4H358.6v-69.6h258.6
			c57.2,0,105.9,32.9,127.4,85.9c21.4,53,9.2,110.5-31.9,150.2l-29.7,28.7l30.9,30C754.6,609.3,766.6,666.9,745.2,719.7z"/>
		<path class="st2" d="M713.8,569.5l-30.9-30l29.7-28.7c41.1-39.7,53.3-97.3,31.9-150.2c-21.4-53-70.2-85.9-127.4-85.9H358.6v69.6
			h258.6c33.7,0,54.6,21.9,62.9,42.4c8.3,20.5,8.5,50.7-15.7,74.1L633,490.9l-99.2-96.6H358.6v289.3h175.2l99.1-95.7l32.4,31.5
			c20.4,20,26.2,47.7,15.5,74.1c-10.7,26.5-34.2,42.3-62.8,42.3H358.6v69.6h259.3c57,0,105.8-32.8,127.3-85.6
			C766.6,666.9,754.6,609.3,713.8,569.5z M505.6,614.1h-77.4V463.9h77.4l77.4,75.4L505.6,614.1z"/>
	</g>
</g>
</svg>
