<?xml version="1.0" encoding="utf-8"?>
<!-- Generator: Adobe Illustrator 28.3.0, SVG Export Plug-In . SVG Version: 6.00 Build 0)  -->
<svg version="1.1" id="Livello_1" xmlns="http://www.w3.org/2000/svg" xmlns:xlink="http://www.w3.org/1999/xlink" x="0px" y="0px"
	 viewBox="0 0 200 72.2" style="enable-background:new 0 0 200 72.2;" xml:space="preserve">
<style type="text/css">
	.st0{fill:#1B2533;}
	.st1{fill:#FF6827;}
</style>
<g>
	<g>
		<path class="st0" d="M59.8,2.4v67.5h10.7V2.4H59.8z"/>
	</g>
	<g>
		<path class="st0" d="M78.4,18.2v51.6h10.7V18.2H78.4z M83.9,2.4c-3.5,0-6.3,2.9-6.3,6.5s2.8,6.5,6.3,6.5s6.3-2.9,6.3-6.5
			C90.1,5.3,87.3,2.4,83.9,2.4z"/>
	</g>
	<g>
		<path class="st0" d="M197.7,18.2L184.1,18l-23.6,23V2.4h-10.7v67.5h10.7v-15l6.8-6.7l14.2,21.7h13.2l-19.4-29.5L197.7,18.2z"/>
	</g>
	<g>
		<g>
			<g>
				<path class="st0" d="M47.5,39.8l-4-3.8l3.8-3.6c5.2-5,6.8-12.4,4.1-19.1c-2.7-6.8-8.9-11-16.2-11H2.3v8.8h32.9
					c4.3,0,6.9,2.8,8,5.4s1.1,6.4-2,9.4l-4,3.8L24.6,17.6H2.3v36.8h22.3l12.6-12.2l4.1,4c2.6,2.5,3.3,6,2,9.4
					c-1.4,3.4-4.4,5.4-8,5.4h-33v8.8h33c7.2,0,13.4-4.2,16.2-10.9C54.2,52.2,52.7,44.9,47.5,39.8z M21,45.5h-9.8V26.4H21l9.8,9.6
					L21,45.5z"/>
				<g>
					<polygon class="st1" points="30.8,36 21,45.5 11.2,45.5 11.2,26.4 21,26.4 					"/>
				</g>
			</g>
		</g>
	</g>
	<path class="st0" d="M119.5,18.3c-0.3,0-0.5,0-0.7,0l0,0l-22.9,0.1L96,69.9h8.6h2.3l0,0l0,0h0.2L107,42l0,0V29.5h12.5
		c6.9,0,12.6,6.5,12.6,14.5v25.7H143V44C143,29.8,132.4,18.3,119.5,18.3z"/>
</g>
</svg>
