<?xml version="1.0" encoding="utf-8"?>
<!-- Generator: Adobe Illustrator 28.3.0, SVG Export Plug-In . SVG Version: 6.00 Build 0)  -->
<svg version="1.1" id="Livello_1" xmlns="http://www.w3.org/2000/svg" xmlns:xlink="http://www.w3.org/1999/xlink" x="0px" y="0px"
	 viewBox="0 0 100 100" style="enable-background:new 0 0 100 100;" xml:space="preserve">
<style type="text/css">
	.st0{fill:#1B2533;}
	.st1{fill:#DFEAF8;}
	.st2{fill:#FF6827;}
	.st3{fill:#FFD0C0;}
	.st4{fill:none;stroke:#1B2533;stroke-width:8;stroke-linecap:round;stroke-linejoin:round;stroke-miterlimit:10;}
	.st5{fill:none;stroke:#FFFFFF;stroke-width:8;stroke-linecap:round;stroke-linejoin:round;stroke-miterlimit:10;}
</style>
<image style="overflow:visible;" width="329" height="427" xlink:href="E03017E9.jpg"  transform="matrix(1.0499 0 0 1.0499 -220.6551 206.39)">
</image>
<rect x="-140.9" y="-115.4" class="st0" width="42.5" height="42.5"/>
<rect x="-98.4" y="-115.4" class="st1" width="42.5" height="42.5"/>
<rect x="-51.2" y="-115.4" class="st2" width="42.5" height="42.5"/>
<rect x="-8.7" y="-115.4" class="st3" width="42.5" height="42.5"/>
<g>
	<path class="st2" d="M70.9-110.1v31.9H39v-31.9H70.9 M76.2-115.4H33.7v42.5h42.5V-115.4L76.2-115.4z"/>
</g>
<g>
	<path class="st4" d="M-47.3,41v47.6c0,3.1-2.6,5.7-5.7,5.7h-75.8c-3.1,0-5.7-2.6-5.7-5.7V41c0-1.8,0.8-3.4,2.2-4.5l37.9-29.7
		c2.1-1.6,5-1.6,7,0l37.9,29.7C-48.1,37.6-47.3,39.3-47.3,41z"/>
	<line class="st4" x1="-117.2" y1="76.2" x2="-64.6" y2="76.2"/>
</g>
<path class="st0" d="M219.1,47.4v31.8c0,2.1-1.7,3.8-3.8,3.8h-50.7c-2.1,0-3.8-1.7-3.8-3.8V47.4c0-1.2,0.5-2.3,1.5-3l25.3-19.8
	c1.4-1.1,3.3-1.1,4.7,0l25.3,19.8C218.6,45.1,219.1,46.2,219.1,47.4z"/>
<g>
	<path class="st0" d="M82.6,39.5c-2.2,0-4,1.8-4,4v39.3c0,4.7-3.8,8.6-8.5,8.6h-53c-4.7,0-8.6-3.8-8.6-8.6V68.4c0.9,0,2,0.1,3.2,0.1
		c5.9,0,14.6-0.8,24.1-4.1c9.1-3.2,16.5-9.5,21.5-14.8v8.1c0,2.2,1.8,4,4,4s4-1.8,4-4V38.3c0,0,0-0.1,0-0.1c0-0.2,0-0.4-0.1-0.6
		c0-0.1,0-0.1,0-0.2c0-0.2-0.1-0.4-0.2-0.7c0,0,0-0.1-0.1-0.1c-0.1-0.1-0.1-0.2-0.2-0.3c0-0.1-0.1-0.1-0.1-0.1
		c0-0.1-0.1-0.1-0.1-0.2c-0.1-0.1-0.2-0.3-0.3-0.4c0,0-0.1-0.1-0.1-0.1c-0.2-0.1-0.3-0.3-0.5-0.4c-0.1-0.1-0.2-0.1-0.2-0.2
		c-0.1-0.1-0.2-0.1-0.3-0.2c-0.1,0-0.2-0.1-0.3-0.1c-0.2-0.1-0.4-0.1-0.6-0.2c-0.1,0-0.1,0-0.2,0c-0.2,0-0.4,0-0.5-0.1
		c0,0-0.1,0-0.1,0c0,0,0,0-0.1,0c0,0-0.1,0-0.1,0l-20.4,0.9c-2.2,0.1-3.9,2-3.8,4.2c0.1,2.2,2,3.9,4.2,3.8l11.7-0.5
		c-4.4,4.9-11.3,11.2-19.6,14.1c-10.4,3.7-19.8,3.8-24.6,3.5V29.9c0-4.7,3.8-8.5,8.6-8.5h39.4c2.2,0,4-1.8,4-4s-1.8-4-4-4H17.1
		C8,13.4,0.6,20.8,0.6,29.9v53C0.6,92,8,99.4,17.1,99.4h53c9.1,0,16.5-7.4,16.5-16.6V43.5C86.6,41.3,84.8,39.5,82.6,39.5z"/>
	<path class="st0" d="M95.4,13.4h-8.8V4.6c0-2.2-1.8-4-4-4s-4,1.8-4,4v8.8h-8.8c-2.2,0-4,1.8-4,4s1.8,4,4,4h8.8v8.8c0,2.2,1.8,4,4,4
		s4-1.8,4-4v-8.8h8.8c2.2,0,4-1.8,4-4S97.6,13.4,95.4,13.4z"/>
</g>
<path class="st4" d="M305.3,245.3v39.3c0,6.9-5.6,12.6-12.5,12.6h-53c-6.9,0-12.6-5.6-12.6-12.6v-53c0-6.9,5.6-12.5,12.6-12.5h39.4"
	/>
<path class="st4" d="M263.6,241l20.4-0.9c0,0-10.7,16.6-26.8,22.3c-16.1,5.7-29.9,3.4-29.9,3.4"/>
<line class="st4" x1="284" y1="259.5" x2="284" y2="240.1"/>
<line class="st4" x1="305.3" y1="219.2" x2="305.3" y2="232"/>
<line class="st4" x1="305.3" y1="206.4" x2="305.3" y2="219.2"/>
<line class="st4" x1="305.3" y1="219.2" x2="292.5" y2="219.2"/>
<line class="st4" x1="318.1" y1="219.2" x2="305.3" y2="219.2"/>
<path class="st4" d="M229-130.8v39.3c0,6.9-5.6,12.6-12.5,12.6h-53c-6.9,0-12.6-5.6-12.6-12.6v-53c0-6.9,5.6-12.5,12.6-12.5h39.4"/>
<path class="st4" d="M187.4-135.1l20.4-0.9c0,0-10.7,16.6-26.8,22.3c-16.1,5.7-29.9,3.4-29.9,3.4"/>
<line class="st4" x1="207.7" y1="-116.6" x2="207.7" y2="-136.1"/>
<line class="st4" x1="229" y1="-157" x2="229" y2="-144.2"/>
<line class="st4" x1="229" y1="-169.8" x2="229" y2="-157"/>
<line class="st4" x1="229" y1="-157" x2="216.2" y2="-157"/>
<line class="st4" x1="241.8" y1="-157" x2="229" y2="-157"/>
<line class="st5" x1="190" y1="56.4" x2="190" y2="69.2"/>
<line class="st5" x1="190" y1="43.6" x2="190" y2="56.4"/>
<line class="st5" x1="190" y1="56.4" x2="177.2" y2="56.4"/>
<line class="st5" x1="202.8" y1="56.4" x2="190" y2="56.4"/>
<path class="st4" d="M233.6,41v47.6c0,3.1-2.6,5.7-5.7,5.7h-75.8c-3.1,0-5.7-2.6-5.7-5.7V41c0-1.8,0.8-3.4,2.2-4.5l37.9-29.7
	c2.1-1.6,5-1.6,7,0l37.9,29.7C232.8,37.6,233.6,39.3,233.6,41z"/>
<text transform="matrix(1 0 0 1 -114.7775 -13.0808)" class="st0" style="font-family:'GendyRegular'; font-size:18.5399px;">HOME</text>
<text transform="matrix(1 0 0 1 -1.856486e-04 -13.0808)" class="st0" style="font-family:'GendyRegular'; font-size:18.5399px;">DASHBOARD</text>
<text transform="matrix(1 0 0 1 173.1109 -13.0808)" class="st0" style="font-family:'GendyRegular'; font-size:18.5399px;">ADD</text>
</svg>
