<?xml version="1.0" encoding="utf-8"?>
<!-- Generator: Adobe Illustrator 28.3.0, SVG Export Plug-In . SVG Version: 6.00 Build 0)  -->
<svg version="1.1" id="Livello_1" xmlns="http://www.w3.org/2000/svg" xmlns:xlink="http://www.w3.org/1999/xlink" x="0px" y="0px"
	 viewBox="0 0 100 100" style="enable-background:new 0 0 100 100;" xml:space="preserve">
<style type="text/css">
	.st0{fill:#1B2533;}
	.st1{fill:#DFEAF8;}
	.st2{fill:#FF6827;}
	.st3{fill:#FFD0C0;}
	.st4{fill:none;stroke:#1B2533;stroke-width:8;stroke-linecap:round;stroke-linejoin:round;stroke-miterlimit:10;}
	.st5{fill:none;stroke:#FFFFFF;stroke-width:8;stroke-linecap:round;stroke-linejoin:round;stroke-miterlimit:10;}
	.st6{fill:none;stroke:#1B2533;stroke-width:5.6086;stroke-linecap:round;stroke-linejoin:round;stroke-miterlimit:10;}
	.st7{fill:#1B2533;stroke:#1B2533;stroke-width:5.6086;stroke-linecap:round;stroke-linejoin:round;stroke-miterlimit:10;}
</style>
<image style="overflow:visible;" width="329" height="427" xlink:href="FE2CD5E7.jpg"  transform="matrix(1.0499 0 0 1.0499 -1104.6454 91.7234)">
</image>
<rect x="-424.9" y="-115.4" class="st0" width="42.5" height="42.5"/>
<rect x="-382.4" y="-115.4" class="st1" width="42.5" height="42.5"/>
<rect x="-335.2" y="-115.4" class="st2" width="42.5" height="42.5"/>
<rect x="-292.7" y="-115.4" class="st3" width="42.5" height="42.5"/>
<g>
	<path class="st2" d="M-213.1-110.1v31.9H-245v-31.9H-213.1 M-207.8-115.4h-42.5v42.5h42.5V-115.4L-207.8-115.4z"/>
</g>
<g>
	<path class="st4" d="M-331.3,41v47.6c0,3.1-2.6,5.7-5.7,5.7h-75.8c-3.1,0-5.7-2.6-5.7-5.7V41c0-1.8,0.8-3.4,2.2-4.5l37.9-29.7
		c2.1-1.6,5-1.6,7,0l37.9,29.7C-332.1,37.6-331.3,39.3-331.3,41z"/>
	<line class="st4" x1="-401.2" y1="76.2" x2="-348.6" y2="76.2"/>
</g>
<path class="st0" d="M-64.9,47.4v31.8c0,2.1-1.7,3.8-3.8,3.8h-50.7c-2.1,0-3.8-1.7-3.8-3.8V47.4c0-1.2,0.5-2.3,1.5-3l25.3-19.8
	c1.4-1.1,3.3-1.1,4.7,0l25.3,19.8C-65.4,45.1-64.9,46.2-64.9,47.4z"/>
<path class="st4" d="M-201.4,43.5v39.3c0,6.9-5.6,12.6-12.5,12.6h-53c-6.9,0-12.6-5.6-12.6-12.6v-53c0-6.9,5.6-12.5,12.6-12.5h39.4"
	/>
<path class="st4" d="M-243,39.2l20.4-0.9c0,0-10.7,16.6-26.8,22.3c-16.1,5.7-29.9,3.4-29.9,3.4"/>
<line class="st4" x1="-222.6" y1="57.7" x2="-222.6" y2="38.3"/>
<line class="st4" x1="-201.4" y1="17.4" x2="-201.4" y2="30.2"/>
<line class="st4" x1="-201.4" y1="4.6" x2="-201.4" y2="17.4"/>
<line class="st4" x1="-201.4" y1="17.4" x2="-214.2" y2="17.4"/>
<line class="st4" x1="-188.6" y1="17.4" x2="-201.4" y2="17.4"/>
<path class="st4" d="M-55-130.8v39.3c0,6.9-5.6,12.6-12.5,12.6h-53c-6.9,0-12.6-5.6-12.6-12.6v-53c0-6.9,5.6-12.5,12.6-12.5h39.4"/>
<path class="st4" d="M-96.6-135.1l20.4-0.9c0,0-10.7,16.6-26.8,22.3c-16.1,5.7-29.9,3.4-29.9,3.4"/>
<line class="st4" x1="-76.3" y1="-116.6" x2="-76.3" y2="-136.1"/>
<line class="st4" x1="-55" y1="-157" x2="-55" y2="-144.2"/>
<line class="st4" x1="-55" y1="-169.8" x2="-55" y2="-157"/>
<line class="st4" x1="-55" y1="-157" x2="-67.8" y2="-157"/>
<line class="st4" x1="-42.2" y1="-157" x2="-55" y2="-157"/>
<line class="st5" x1="-94" y1="56.4" x2="-94" y2="69.2"/>
<line class="st5" x1="-94" y1="43.6" x2="-94" y2="56.4"/>
<line class="st5" x1="-94" y1="56.4" x2="-106.8" y2="56.4"/>
<line class="st5" x1="-81.2" y1="56.4" x2="-94" y2="56.4"/>
<path class="st4" d="M-50.4,41v47.6c0,3.1-2.6,5.7-5.7,5.7h-75.8c-3.1,0-5.7-2.6-5.7-5.7V41c0-1.8,0.8-3.4,2.2-4.5l37.9-29.7
	c2.1-1.6,5-1.6,7,0l37.9,29.7C-51.2,37.6-50.4,39.3-50.4,41z"/>
<text transform="matrix(1 0 0 1 -398.7775 -13.0808)" class="st0" style="font-family:'GendyRegular'; font-size:18.5399px;">HOME</text>
<text transform="matrix(1 0 0 1 -284.0002 -13.0808)" class="st0" style="font-family:'GendyRegular'; font-size:18.5399px;">DASHBOARD</text>
<text transform="matrix(1 0 0 1 -110.8891 -13.0808)" class="st0" style="font-family:'GendyRegular'; font-size:18.5399px;">ADD</text>
<g>
	<polyline class="st6" points="31.4,36.2 31.4,9.6 87.9,9.6 87.9,82.3 31.4,82.3 31.4,55.3 	"/>
	<polygon class="st7" points="87.9,9.6 52.4,24.6 52.4,93.3 87.9,82.3 	"/>
	<g>
		<polyline class="st6" points="39.8,45.9 9.4,45.9 17.9,38.7 		"/>
		<line class="st6" x1="9.4" y1="45.9" x2="18" y2="53.2"/>
	</g>
</g>
</svg>
