<?xml version="1.0" encoding="utf-8"?>
<!-- Generator: Adobe Illustrator 28.3.0, SVG Export Plug-In . SVG Version: 6.00 Build 0)  -->
<svg version="1.1" id="Livello_1" xmlns="http://www.w3.org/2000/svg" xmlns:xlink="http://www.w3.org/1999/xlink" x="0px" y="0px"
	 viewBox="0 0 100 100" style="enable-background:new 0 0 100 100;" xml:space="preserve">
<style type="text/css">
	.st0{fill:#1B2533;}
	.st1{fill:#DFEAF8;}
	.st2{fill:#FF6827;}
	.st3{fill:#FFD0C0;}
	.st4{fill:none;stroke:#1B2533;stroke-width:8;stroke-linecap:round;stroke-linejoin:round;stroke-miterlimit:10;}
	.st5{fill:none;stroke:#FFFFFF;stroke-width:8;stroke-linecap:round;stroke-linejoin:round;stroke-miterlimit:10;}
	.st6{fill:none;stroke:#1B2533;stroke-width:5.6086;stroke-linecap:round;stroke-linejoin:round;stroke-miterlimit:10;}
	.st7{fill:#1B2533;stroke:#1B2533;stroke-width:5.6086;stroke-linecap:round;stroke-linejoin:round;stroke-miterlimit:10;}
</style>
<image style="overflow:visible;" width="329" height="427" xlink:href="4E61321F.jpg"  transform="matrix(1.0499 0 0 1.0499 -452.6551 190.39)">
</image>
<rect x="-578.9" y="-115.4" class="st0" width="42.5" height="42.5"/>
<rect x="-536.4" y="-115.4" class="st1" width="42.5" height="42.5"/>
<rect x="-489.2" y="-115.4" class="st2" width="42.5" height="42.5"/>
<rect x="-446.7" y="-115.4" class="st3" width="42.5" height="42.5"/>
<g>
	<path class="st2" d="M-367.1-110.1v31.9H-399v-31.9H-367.1 M-361.8-115.4h-42.5v42.5h42.5V-115.4L-361.8-115.4z"/>
</g>
<g>
	<path class="st4" d="M-485.3,41v47.6c0,3.1-2.6,5.7-5.7,5.7h-75.8c-3.1,0-5.7-2.6-5.7-5.7V41c0-1.8,0.8-3.4,2.2-4.5l37.9-29.7
		c2.1-1.6,5-1.6,7,0l37.9,29.7C-486.1,37.6-485.3,39.3-485.3,41z"/>
	<line class="st4" x1="-555.2" y1="76.2" x2="-502.6" y2="76.2"/>
</g>
<path class="st0" d="M-218.9,47.4v31.8c0,2.1-1.7,3.8-3.8,3.8h-50.7c-2.1,0-3.8-1.7-3.8-3.8V47.4c0-1.2,0.5-2.3,1.5-3l25.3-19.8
	c1.4-1.1,3.3-1.1,4.7,0l25.3,19.8C-219.4,45.1-218.9,46.2-218.9,47.4z"/>
<path class="st4" d="M-355.4,43.5v39.3c0,6.9-5.6,12.6-12.5,12.6h-53c-6.9,0-12.6-5.6-12.6-12.6v-53c0-6.9,5.6-12.5,12.6-12.5h39.4"
	/>
<path class="st4" d="M-397,39.2l20.4-0.9c0,0-10.7,16.6-26.8,22.3c-16.1,5.7-29.9,3.4-29.9,3.4"/>
<line class="st4" x1="-376.6" y1="57.7" x2="-376.6" y2="38.3"/>
<line class="st4" x1="-355.4" y1="17.4" x2="-355.4" y2="30.2"/>
<line class="st4" x1="-355.4" y1="4.6" x2="-355.4" y2="17.4"/>
<line class="st4" x1="-355.4" y1="17.4" x2="-368.2" y2="17.4"/>
<line class="st4" x1="-342.6" y1="17.4" x2="-355.4" y2="17.4"/>
<path class="st4" d="M-209-130.8v39.3c0,6.9-5.6,12.6-12.5,12.6h-53c-6.9,0-12.6-5.6-12.6-12.6v-53c0-6.9,5.6-12.5,12.6-12.5h39.4"
	/>
<path class="st4" d="M-250.6-135.1l20.4-0.9c0,0-10.7,16.6-26.8,22.3c-16.1,5.7-29.9,3.4-29.9,3.4"/>
<line class="st4" x1="-230.3" y1="-116.6" x2="-230.3" y2="-136.1"/>
<line class="st4" x1="-209" y1="-157" x2="-209" y2="-144.2"/>
<line class="st4" x1="-209" y1="-169.8" x2="-209" y2="-157"/>
<line class="st4" x1="-209" y1="-157" x2="-221.8" y2="-157"/>
<line class="st4" x1="-196.2" y1="-157" x2="-209" y2="-157"/>
<line class="st5" x1="-248" y1="56.4" x2="-248" y2="69.2"/>
<line class="st5" x1="-248" y1="43.6" x2="-248" y2="56.4"/>
<line class="st5" x1="-248" y1="56.4" x2="-260.8" y2="56.4"/>
<line class="st5" x1="-235.2" y1="56.4" x2="-248" y2="56.4"/>
<path class="st4" d="M-204.4,41v47.6c0,3.1-2.6,5.7-5.7,5.7h-75.8c-3.1,0-5.7-2.6-5.7-5.7V41c0-1.8,0.8-3.4,2.2-4.5l37.9-29.7
	c2.1-1.6,5-1.6,7,0l37.9,29.7C-205.2,37.6-204.4,39.3-204.4,41z"/>
<text transform="matrix(1 0 0 1 -552.7775 -13.0808)" class="st0" style="font-family:'GendyRegular'; font-size:18.5399px;">HOME</text>
<text transform="matrix(1 0 0 1 -438.0002 -13.0808)" class="st0" style="font-family:'GendyRegular'; font-size:18.5399px;">DASHBOARD</text>
<text transform="matrix(1 0 0 1 -264.8891 -13.0808)" class="st0" style="font-family:'GendyRegular'; font-size:18.5399px;">ADD</text>
<g>
	<polyline class="st6" points="-122.6,36.2 -122.6,9.6 -66.1,9.6 -66.1,82.3 -122.6,82.3 -122.6,55.3 	"/>
	<polygon class="st7" points="-66.1,9.6 -101.6,24.6 -101.6,93.3 -66.1,82.3 	"/>
	<g>
		<polyline class="st6" points="-114.2,45.9 -144.6,45.9 -136.1,38.7 		"/>
		<line class="st6" x1="-144.6" y1="45.9" x2="-136" y2="53.2"/>
	</g>
</g>
<g>
	<g>
		<path class="st0" d="M50,48c-0.4,0-0.9-0.1-1.3-0.2L3.8,32.4c-1.6-0.6-2.7-2.1-2.7-3.8c0-1.7,1.1-3.2,2.7-3.8L48.7,9.4
			c0.8-0.3,1.8-0.3,2.6,0l44.9,15.4c1.6,0.6,2.7,2.1,2.7,3.8s-1.1,3.2-2.7,3.8L51.3,47.8C50.9,47.9,50.4,48,50,48z M17.4,28.6
			L50,39.7l32.6-11.2L50,17.4L17.4,28.6z"/>
	</g>
	<g>
		<path class="st0" d="M50,69.4c-0.4,0-0.9-0.1-1.3-0.2L3.8,53.8c-2.1-0.7-3.2-3-2.5-5.1s3-3.2,5.1-2.5L50,61.2l43.6-14.9
			c2.1-0.7,4.4,0.4,5.1,2.5c0.7,2.1-0.4,4.4-2.5,5.1L51.3,69.2C50.9,69.3,50.4,69.4,50,69.4z"/>
	</g>
	<g>
		<path class="st0" d="M50,90.8c-0.4,0-0.9-0.1-1.3-0.2L3.8,75.2c-2.1-0.7-3.2-3-2.5-5.1s3-3.2,5.1-2.5L50,82.6l43.6-14.9
			c2.1-0.7,4.4,0.4,5.1,2.5c0.7,2.1-0.4,4.4-2.5,5.1L51.3,90.6C50.9,90.7,50.4,90.8,50,90.8z"/>
	</g>
</g>
<g>
	<polygon class="st4" points="94.9,-115.5 50,-100.1 5.1,-115.5 50,-130.9 	"/>
	<polyline class="st4" points="94.9,-94.1 50,-78.7 5.1,-94.1 	"/>
	<polyline class="st4" points="94.9,-72.7 50,-57.3 5.1,-72.7 	"/>
</g>
</svg>
