<?xml version="1.0" encoding="utf-8"?>
<!-- Generator: Adobe Illustrator 28.3.0, SVG Export Plug-In . SVG Version: 6.00 Build 0)  -->
<svg version="1.1" id="Livello_1" xmlns="http://www.w3.org/2000/svg" xmlns:xlink="http://www.w3.org/1999/xlink" x="0px" y="0px"
	 viewBox="0 0 100 100" style="enable-background:new 0 0 100 100;" xml:space="preserve">
<style type="text/css">
	.st0{fill:#1B2533;}
	.st1{fill:#DFEAF8;}
	.st2{fill:#FF6827;}
	.st3{fill:#FFD0C0;}
	.st4{fill:none;stroke:#1B2533;stroke-width:8;stroke-linecap:round;stroke-linejoin:round;stroke-miterlimit:10;}
	.st5{fill:none;stroke:#FFFFFF;stroke-width:8;stroke-linecap:round;stroke-linejoin:round;stroke-miterlimit:10;}
</style>
<image style="overflow:visible;" width="329" height="427" xlink:href="23D74077.jpg"  transform="matrix(1.0499 0 0 1.0499 -79.7662 206.39)">
</image>
<rect y="-115.4" class="st0" width="42.5" height="42.5"/>
<rect x="42.5" y="-115.4" class="st1" width="42.5" height="42.5"/>
<rect x="89.7" y="-115.4" class="st2" width="42.5" height="42.5"/>
<rect x="132.2" y="-115.4" class="st3" width="42.5" height="42.5"/>
<g>
	<path class="st2" d="M211.8-110.1v31.9h-31.9v-31.9H211.8 M217.1-115.4h-42.5v42.5h42.5V-115.4L217.1-115.4z"/>
</g>
<g>
	<g>
		<path class="st0" d="M87.9,98.3H12.1c-5.3,0-9.7-4.3-9.7-9.7V41c0-3,1.4-5.8,3.7-7.6L44,3.7c3.5-2.8,8.4-2.8,12,0l37.9,29.7
			c2.4,1.9,3.7,4.6,3.7,7.6v47.6C97.6,94,93.2,98.3,87.9,98.3z M50,9.7c-0.4,0-0.7,0.1-1,0.4L11.1,39.7c-0.4,0.3-0.6,0.8-0.6,1.3
			v47.6c0,0.9,0.8,1.7,1.7,1.7h75.8c0.9,0,1.7-0.8,1.7-1.7V41c0-0.5-0.2-1-0.7-1.3L51,10C50.7,9.8,50.4,9.7,50,9.7z"/>
	</g>
	<g>
		<path class="st0" d="M76.3,80.2H23.7c-2.2,0-4-1.8-4-4s1.8-4,4-4h52.6c2.2,0,4,1.8,4,4S78.5,80.2,76.3,80.2z"/>
	</g>
</g>
<g>
	<path class="st4" d="M-117.2,41v47.6c0,3.1-2.6,5.7-5.7,5.7h-75.8c-3.1,0-5.7-2.6-5.7-5.7V41c0-1.8,0.8-3.4,2.2-4.5l37.9-29.7
		c2.1-1.6,5-1.6,7,0l37.9,29.7C-118,37.6-117.2,39.3-117.2,41z"/>
	<line class="st4" x1="-187.1" y1="76.2" x2="-134.5" y2="76.2"/>
</g>
<path class="st0" d="M360,47.4v31.8c0,2.1-1.7,3.8-3.8,3.8h-50.7c-2.1,0-3.8-1.7-3.8-3.8V47.4c0-1.2,0.5-2.3,1.5-3l25.3-19.8
	c1.4-1.1,3.3-1.1,4.7,0l25.3,19.8C359.5,45.1,360,46.2,360,47.4z"/>
<path class="st4" d="M223.5,43.5v39.3c0,6.9-5.6,12.6-12.5,12.6h-53c-6.9,0-12.6-5.6-12.6-12.6v-53c0-6.9,5.6-12.5,12.6-12.5h39.4"
	/>
<path class="st4" d="M181.9,39.2l20.4-0.9c0,0-10.7,16.6-26.8,22.3c-16.1,5.7-29.9,3.4-29.9,3.4"/>
<line class="st4" x1="202.2" y1="57.7" x2="202.2" y2="38.3"/>
<line class="st4" x1="223.5" y1="17.4" x2="223.5" y2="30.2"/>
<line class="st4" x1="223.5" y1="4.6" x2="223.5" y2="17.4"/>
<line class="st4" x1="223.5" y1="17.4" x2="210.7" y2="17.4"/>
<line class="st4" x1="236.3" y1="17.4" x2="223.5" y2="17.4"/>
<line class="st5" x1="330.9" y1="56.4" x2="330.9" y2="69.2"/>
<line class="st5" x1="330.9" y1="43.6" x2="330.9" y2="56.4"/>
<line class="st5" x1="330.9" y1="56.4" x2="318.1" y2="56.4"/>
<line class="st5" x1="343.7" y1="56.4" x2="330.9" y2="56.4"/>
<path class="st4" d="M374.5,41v47.6c0,3.1-2.6,5.7-5.7,5.7H293c-3.1,0-5.7-2.6-5.7-5.7V41c0-1.8,0.8-3.4,2.2-4.5l37.9-29.7
	c2.1-1.6,5-1.6,7,0l37.9,29.7C373.7,37.6,374.5,39.3,374.5,41z"/>
<text transform="matrix(1 0 0 1 26.1114 -13.0808)" class="st0" style="font-family:'GendyRegular'; font-size:18.5399px;">HOME</text>
<text transform="matrix(1 0 0 1 140.8887 -13.0808)" class="st0" style="font-family:'GendyRegular'; font-size:18.5399px;">DASHBOARD</text>
<text transform="matrix(1 0 0 1 313.9998 -13.0808)" class="st0" style="font-family:'GendyRegular'; font-size:18.5399px;">ADD</text>
</svg>
