<?xml version="1.0" encoding="utf-8"?>
<!-- Generator: Adobe Illustrator 28.3.0, SVG Export Plug-In . SVG Version: 6.00 Build 0)  -->
<svg version="1.1" id="Livello_1" xmlns="http://www.w3.org/2000/svg" xmlns:xlink="http://www.w3.org/1999/xlink" x="0px" y="0px"
	 viewBox="0 0 100 100" style="enable-background:new 0 0 100 100;" xml:space="preserve">
<style type="text/css">
	.st0{fill:#1B2533;}
	.st1{fill:#DFEAF8;}
	.st2{fill:#FF6827;}
	.st3{fill:#FFD0C0;}
	.st4{fill:none;stroke:#1B2533;stroke-width:8;stroke-linecap:round;stroke-linejoin:round;stroke-miterlimit:10;}
	.st5{fill:none;stroke:#FFFFFF;stroke-width:8;stroke-linecap:round;stroke-linejoin:round;stroke-miterlimit:10;}
	.st6{fill:none;stroke:#1B2533;stroke-width:5.6086;stroke-linecap:round;stroke-linejoin:round;stroke-miterlimit:10;}
	.st7{fill:#1B2533;stroke:#1B2533;stroke-width:5.6086;stroke-linecap:round;stroke-linejoin:round;stroke-miterlimit:10;}
	.st8{fill:#FFFFFF;}
</style>
<rect y="-295.4" class="st0" width="42.5" height="42.5"/>
<rect x="42.5" y="-295.4" class="st1" width="42.5" height="42.5"/>
<rect x="89.7" y="-295.4" class="st2" width="42.5" height="42.5"/>
<rect x="132.2" y="-295.4" class="st3" width="42.5" height="42.5"/>
<g>
	<path class="st2" d="M211.8-290.1v31.9h-31.9v-31.9H211.8 M217.1-295.4h-42.5v42.5h42.5V-295.4L217.1-295.4z"/>
</g>
<g>
	<path class="st4" d="M-38.2,41v47.6c0,3.1-2.6,5.7-5.7,5.7h-75.8c-3.1,0-5.7-2.6-5.7-5.7V41c0-1.8,0.8-3.4,2.2-4.5l37.9-29.7
		c2.1-1.6,5-1.6,7,0l37.9,29.7C-39,37.6-38.2,39.3-38.2,41z"/>
	<line class="st4" x1="-108.1" y1="76.2" x2="-55.5" y2="76.2"/>
</g>
<g>
	<path class="st4" d="M93.6-139v47.6c0,3.1-2.6,5.7-5.7,5.7H12.1c-3.1,0-5.7-2.6-5.7-5.7V-139c0-1.8,0.8-3.4,2.2-4.5l37.9-29.7
		c2.1-1.6,5-1.6,7,0l37.9,29.7C92.8-142.4,93.6-140.7,93.6-139z"/>
	<line class="st4" x1="23.7" y1="-103.8" x2="76.3" y2="-103.8"/>
</g>
<path class="st0" d="M360-132.6v31.8c0,2.1-1.7,3.8-3.8,3.8h-50.7c-2.1,0-3.8-1.7-3.8-3.8v-31.8c0-1.2,0.5-2.3,1.5-3l25.3-19.8
	c1.4-1.1,3.3-1.1,4.7,0l25.3,19.8C359.5-134.9,360-133.8,360-132.6z"/>
<path class="st4" d="M223.5-136.5v39.3c0,6.9-5.6,12.6-12.5,12.6h-53c-6.9,0-12.6-5.6-12.6-12.6v-53c0-6.9,5.6-12.5,12.6-12.5h39.4"
	/>
<path class="st4" d="M181.9-140.8l20.4-0.9c0,0-10.7,16.6-26.8,22.3c-16.1,5.7-29.9,3.4-29.9,3.4"/>
<line class="st4" x1="202.2" y1="-122.3" x2="202.2" y2="-141.7"/>
<line class="st4" x1="223.5" y1="-162.6" x2="223.5" y2="-149.8"/>
<line class="st4" x1="223.5" y1="-175.4" x2="223.5" y2="-162.6"/>
<line class="st4" x1="223.5" y1="-162.6" x2="210.7" y2="-162.6"/>
<line class="st4" x1="236.3" y1="-162.6" x2="223.5" y2="-162.6"/>
<path class="st4" d="M369.9-310.8v39.3c0,6.9-5.6,12.6-12.5,12.6h-53c-6.9,0-12.6-5.6-12.6-12.6v-53c0-6.9,5.6-12.5,12.6-12.5h39.4"
	/>
<path class="st4" d="M328.2-315.1l20.4-0.9c0,0-10.7,16.6-26.8,22.3c-16.1,5.7-29.9,3.4-29.9,3.4"/>
<line class="st4" x1="348.6" y1="-296.6" x2="348.6" y2="-316.1"/>
<line class="st4" x1="369.9" y1="-337" x2="369.9" y2="-324.2"/>
<line class="st4" x1="369.9" y1="-349.8" x2="369.9" y2="-337"/>
<line class="st4" x1="369.9" y1="-337" x2="357.1" y2="-337"/>
<line class="st4" x1="382.7" y1="-337" x2="369.9" y2="-337"/>
<line class="st5" x1="330.9" y1="-123.6" x2="330.9" y2="-110.8"/>
<line class="st5" x1="330.9" y1="-136.4" x2="330.9" y2="-123.6"/>
<line class="st5" x1="330.9" y1="-123.6" x2="318.1" y2="-123.6"/>
<line class="st5" x1="343.7" y1="-123.6" x2="330.9" y2="-123.6"/>
<path class="st4" d="M374.5-139v47.6c0,3.1-2.6,5.7-5.7,5.7H293c-3.1,0-5.7-2.6-5.7-5.7V-139c0-1.8,0.8-3.4,2.2-4.5l37.9-29.7
	c2.1-1.6,5-1.6,7,0l37.9,29.7C373.7-142.4,374.5-140.7,374.5-139z"/>
<text transform="matrix(1 0 0 1 26.1114 -193.0808)" class="st0" style="font-family:'GendyRegular'; font-size:18.5399px;">HOME</text>
<text transform="matrix(1 0 0 1 140.8887 -193.0808)" class="st0" style="font-family:'GendyRegular'; font-size:18.5399px;">DASHBOARD</text>
<text transform="matrix(1 0 0 1 313.9998 -193.0808)" class="st0" style="font-family:'GendyRegular'; font-size:18.5399px;">ADD</text>
<g>
	<polyline class="st6" points="456.3,-143.8 456.3,-170.4 512.8,-170.4 512.8,-97.7 456.3,-97.7 456.3,-124.7 	"/>
	<polygon class="st7" points="512.8,-170.4 477.3,-155.4 477.3,-86.7 512.8,-97.7 	"/>
	<g>
		<polyline class="st6" points="464.7,-134.1 434.3,-134.1 442.8,-141.3 		"/>
		<line class="st6" x1="434.3" y1="-134.1" x2="442.8" y2="-126.8"/>
	</g>
</g>
<g>
	<g>
		<path class="st0" d="M628.9-132c-0.4,0-0.9-0.1-1.3-0.2l-44.9-15.4c-1.6-0.6-2.7-2.1-2.7-3.8s1.1-3.2,2.7-3.8l44.9-15.4
			c0.8-0.3,1.8-0.3,2.6,0l44.9,15.4c1.6,0.6,2.7,2.1,2.7,3.8s-1.1,3.2-2.7,3.8l-44.9,15.4C629.8-132.1,629.3-132,628.9-132z
			 M596.3-151.4l32.6,11.2l32.6-11.2l-32.6-11.2L596.3-151.4z"/>
	</g>
	<g>
		<path class="st0" d="M628.9-110.6c-0.4,0-0.9-0.1-1.3-0.2l-44.9-15.4c-2.1-0.7-3.2-3-2.5-5.1s3-3.2,5.1-2.5l43.6,14.9l43.6-14.9
			c2.1-0.7,4.4,0.4,5.1,2.5c0.7,2.1-0.4,4.4-2.5,5.1l-44.9,15.4C629.8-110.7,629.3-110.6,628.9-110.6z"/>
	</g>
	<g>
		<path class="st0" d="M628.9-89.2c-0.4,0-0.9-0.1-1.3-0.2l-44.9-15.4c-2.1-0.7-3.2-3-2.5-5.1s3-3.2,5.1-2.5l43.6,14.9l43.6-14.9
			c2.1-0.7,4.4,0.4,5.1,2.5c0.7,2.1-0.4,4.4-2.5,5.1l-44.9,15.4C629.8-89.3,629.3-89.2,628.9-89.2z"/>
	</g>
</g>
<g>
	<polygon class="st4" points="673.8,-295.5 628.9,-280.1 584,-295.5 628.9,-310.9 	"/>
	<polyline class="st4" points="673.8,-274.1 628.9,-258.7 584,-274.1 	"/>
	<polyline class="st4" points="673.8,-252.7 628.9,-237.3 584,-252.7 	"/>
</g>
<g>
	<path class="st8" d="M89.4,83.8l-11.9-12c5.3-6.6,8.6-15,8.6-24.1c0-21.1-17.2-38.3-38.3-38.3S9.4,26.6,9.4,47.7S26.6,86,47.7,86
		c9.1,0,17.5-3.2,24.1-8.6l11.9,11.9c0.8,0.8,1.8,1.2,2.8,1.2s2-0.4,2.8-1.2C91,87.9,91,85.3,89.4,83.8z M17.4,47.7
		C17.4,31,31,17.4,47.7,17.4S78.1,31,78.1,47.7S64.5,78,47.8,78S17.4,64.4,17.4,47.7z"/>
	<path class="st8" d="M47.7,23.6c-13.3,0-24.1,10.8-24.1,24.1c0,2.2,1.8,4,4,4s4-1.8,4-4c0-8.9,7.2-16.1,16.1-16.1c2.2,0,4-1.8,4-4
		S49.9,23.6,47.7,23.6z"/>
</g>
<circle class="st4" cx="47.7" cy="203.8" r="34.3"/>
<line class="st4" x1="72" y1="228.1" x2="86.6" y2="242.7"/>
<path class="st4" d="M47.7,183.7c-11.1,0-20.1,9-20.1,20.1"/>
</svg>
