<?xml version="1.0" encoding="utf-8"?>
<!-- Generator: Adobe Illustrator 28.3.0, SVG Export Plug-In . SVG Version: 6.00 Build 0)  -->
<svg version="1.1" id="Livello_1" xmlns="http://www.w3.org/2000/svg" xmlns:xlink="http://www.w3.org/1999/xlink" x="0px" y="0px"
	 viewBox="0 0 60.7 60.7" style="enable-background:new 0 0 60.7 60.7;" xml:space="preserve">
<style type="text/css">
	.st0{fill:#1B2533;}
	.st1{fill:#DFEAF8;}
	.st2{fill:#FF6827;}
	.st3{fill:#FFD0C0;}
	.st4{fill:none;stroke:#1B2533;stroke-width:8;stroke-linecap:round;stroke-linejoin:round;stroke-miterlimit:10;}
	.st5{fill:none;stroke:#FFFFFF;stroke-width:8;stroke-linecap:round;stroke-linejoin:round;stroke-miterlimit:10;}
	.st6{fill:none;stroke:#1B2533;stroke-width:5.6086;stroke-linecap:round;stroke-linejoin:round;stroke-miterlimit:10;}
	.st7{fill:#1B2533;stroke:#1B2533;stroke-width:5.6086;stroke-linecap:round;stroke-linejoin:round;stroke-miterlimit:10;}
</style>
<rect x="-166.3" y="-315" class="st0" width="42.5" height="42.5"/>
<rect x="-123.8" y="-315" class="st1" width="42.5" height="42.5"/>
<rect x="-76.7" y="-315" class="st2" width="42.5" height="42.5"/>
<rect x="-34.2" y="-315" class="st3" width="42.5" height="42.5"/>
<g>
	<path class="st2" d="M45.5-309.7v31.9H13.6v-31.9H45.5 M50.8-315H8.3v42.5h42.5V-315L50.8-315z"/>
</g>
<g>
	<path class="st4" d="M-204.5,21.4V69c0,3.1-2.6,5.7-5.7,5.7H-286c-3.1,0-5.7-2.6-5.7-5.7V21.4c0-1.8,0.8-3.4,2.2-4.5l37.9-29.7
		c2.1-1.6,5-1.6,7,0l37.9,29.7C-205.3,18-204.5,19.6-204.5,21.4z"/>
	<line class="st4" x1="-274.4" y1="56.5" x2="-221.8" y2="56.5"/>
</g>
<g>
	<path class="st4" d="M-72.7-158.6v47.6c0,3.1-2.6,5.7-5.7,5.7h-75.8c-3.1,0-5.7-2.6-5.7-5.7v-47.6c0-1.8,0.8-3.4,2.2-4.5l37.9-29.7
		c2.1-1.6,5-1.6,7,0l37.9,29.7C-73.5-162-72.7-160.4-72.7-158.6z"/>
	<line class="st4" x1="-142.6" y1="-123.5" x2="-90" y2="-123.5"/>
</g>
<path class="st0" d="M193.7-152.3v31.8c0,2.1-1.7,3.8-3.8,3.8h-50.7c-2.1,0-3.8-1.7-3.8-3.8v-31.8c0-1.2,0.5-2.3,1.5-3l25.3-19.8
	c1.4-1.1,3.3-1.1,4.7,0l25.3,19.8C193.2-154.5,193.7-153.4,193.7-152.3z"/>
<path class="st4" d="M57.2-156.1v39.3c0,6.9-5.6,12.6-12.5,12.6h-53c-6.9,0-12.6-5.6-12.6-12.6v-53c0-6.9,5.6-12.5,12.6-12.5h39.4"
	/>
<path class="st4" d="M15.5-160.5l20.4-0.9c0,0-10.7,16.6-26.8,22.3s-29.9,3.4-29.9,3.4"/>
<line class="st4" x1="35.9" y1="-142" x2="35.9" y2="-161.4"/>
<g>
	<line class="st4" x1="31.8" y1="8.5" x2="52.2" y2="8.5"/>
	<polyline class="st4" points="52.2,27.9 52.2,8.5 8.5,52.2 	"/>
</g>
<line class="st4" x1="57.2" y1="-182.3" x2="57.2" y2="-169.5"/>
<line class="st4" x1="57.2" y1="-195.1" x2="57.2" y2="-182.3"/>
<line class="st4" x1="57.2" y1="-182.3" x2="44.4" y2="-182.3"/>
<line class="st4" x1="70" y1="-182.3" x2="57.2" y2="-182.3"/>
<path class="st4" d="M203.6-330.5v39.3c0,6.9-5.6,12.6-12.5,12.6h-53c-6.9,0-12.6-5.6-12.6-12.6v-53c0-6.9,5.6-12.5,12.6-12.5h39.4"
	/>
<path class="st4" d="M161.9-334.8l20.4-0.9c0,0-10.7,16.6-26.8,22.3s-29.9,3.4-29.9,3.4"/>
<line class="st4" x1="182.3" y1="-316.3" x2="182.3" y2="-335.7"/>
<line class="st4" x1="203.6" y1="-356.6" x2="203.6" y2="-343.8"/>
<line class="st4" x1="203.6" y1="-369.4" x2="203.6" y2="-356.6"/>
<line class="st4" x1="203.6" y1="-356.6" x2="190.8" y2="-356.6"/>
<line class="st4" x1="216.4" y1="-356.6" x2="203.6" y2="-356.6"/>
<line class="st5" x1="164.6" y1="-143.3" x2="164.6" y2="-130.5"/>
<line class="st5" x1="164.6" y1="-156.1" x2="164.6" y2="-143.3"/>
<line class="st5" x1="164.6" y1="-143.3" x2="151.8" y2="-143.3"/>
<line class="st5" x1="177.3" y1="-143.3" x2="164.6" y2="-143.3"/>
<path class="st4" d="M208.2-158.6v47.6c0,3.1-2.6,5.7-5.7,5.7h-75.8c-3.1,0-5.7-2.6-5.7-5.7v-47.6c0-1.8,0.8-3.4,2.2-4.5l37.9-29.7
	c2.1-1.6,5-1.6,7,0l37.9,29.7C207.3-162,208.2-160.4,208.2-158.6z"/>
<text transform="matrix(1 0 0 1 -140.222 -212.7475)" class="st0" style="font-family:'GendyRegular'; font-size:18.5399px;">HOME</text>
<text transform="matrix(1 0 0 1 -25.4446 -212.7475)" class="st0" style="font-family:'GendyRegular'; font-size:18.5399px;">DASHBOARD</text>
<text transform="matrix(1 0 0 1 147.6665 -212.7475)" class="st0" style="font-family:'GendyRegular'; font-size:18.5399px;">ADD</text>
<g>
	<polyline class="st6" points="290,-163.5 290,-190.1 346.4,-190.1 346.4,-117.4 290,-117.4 290,-144.3 	"/>
	<polygon class="st7" points="346.4,-190.1 310.9,-175 310.9,-106.3 346.4,-117.4 	"/>
	<g>
		<polyline class="st6" points="298.4,-153.8 268,-153.8 276.5,-161 		"/>
		<line class="st6" x1="268" y1="-153.8" x2="276.5" y2="-146.5"/>
	</g>
</g>
<g>
	<g>
		<path class="st0" d="M462.6-151.7c-0.4,0-0.9-0.1-1.3-0.2l-44.9-15.4c-1.6-0.6-2.7-2.1-2.7-3.8c0-1.7,1.1-3.2,2.7-3.8l44.9-15.4
			c0.8-0.3,1.8-0.3,2.6,0l44.9,15.4c1.6,0.6,2.7,2.1,2.7,3.8s-1.1,3.2-2.7,3.8l-44.9,15.4C463.4-151.8,463-151.7,462.6-151.7z
			 M430-171.1l32.6,11.2l32.6-11.2l-32.6-11.2L430-171.1z"/>
	</g>
	<g>
		<path class="st0" d="M462.6-130.3c-0.4,0-0.9-0.1-1.3-0.2l-44.9-15.4c-2.1-0.7-3.2-3-2.5-5.1s3-3.2,5.1-2.5l43.6,14.9l43.6-14.9
			c2.1-0.7,4.4,0.4,5.1,2.5c0.7,2.1-0.4,4.4-2.5,5.1l-44.9,15.4C463.4-130.3,463-130.3,462.6-130.3z"/>
	</g>
	<g>
		<path class="st0" d="M462.6-108.9c-0.4,0-0.9-0.1-1.3-0.2l-44.9-15.4c-2.1-0.7-3.2-3-2.5-5.1c0.7-2.1,3-3.2,5.1-2.5l43.6,14.9
			l43.6-14.9c2.1-0.7,4.4,0.4,5.1,2.5c0.7,2.1-0.4,4.4-2.5,5.1l-44.9,15.4C463.4-108.9,463-108.9,462.6-108.9z"/>
	</g>
</g>
<g>
	<polygon class="st4" points="507.4,-315.2 462.6,-299.8 417.7,-315.2 462.6,-330.6 	"/>
	<polyline class="st4" points="507.4,-293.8 462.6,-278.4 417.7,-293.8 	"/>
	<polyline class="st4" points="507.4,-272.4 462.6,-257 417.7,-272.4 	"/>
</g>
<g>
	<path class="st0" d="M247.6,69.9L235.6,58c5.3-6.6,8.6-15,8.6-24.1c0-21.1-17.2-38.3-38.3-38.3s-38.3,17.2-38.3,38.3
		c0,21.1,17.2,38.3,38.3,38.3c9.1,0,17.5-3.2,24.1-8.6l11.9,11.9c0.8,0.8,1.8,1.2,2.8,1.2s2-0.4,2.8-1.2
		C249.2,74,249.2,71.5,247.6,69.9z M175.5,33.9c0-16.7,13.6-30.3,30.3-30.3s30.3,13.6,30.3,30.3c0,16.7-13.6,30.3-30.3,30.3
		S175.5,50.6,175.5,33.9z"/>
	<path class="st0" d="M205.9,9.7c-13.3,0-24.1,10.8-24.1,24.1c0,2.2,1.8,4,4,4s4-1.8,4-4c0-8.9,7.2-16.1,16.1-16.1c2.2,0,4-1.8,4-4
		S208.1,9.7,205.9,9.7z"/>
</g>
<g>
	<path class="st0" d="M-76.9,64.1l-11.9-11.9c5.3-6.6,8.6-15,8.6-24.1c0-21.1-17.2-38.3-38.3-38.3s-38.3,17.2-38.3,38.3
		c0,21.1,17.2,38.3,38.3,38.3c9.1,0,17.5-3.2,24.1-8.6l11.9,11.9c0.8,0.8,1.8,1.2,2.8,1.2s2-0.4,2.8-1.2
		C-75.3,68.2-75.3,65.7-76.9,64.1z M-148.9,28.1c0-16.7,13.6-30.3,30.3-30.3s30.3,13.6,30.3,30.3c0,16.7-13.6,30.3-30.3,30.3
		S-148.9,44.8-148.9,28.1z"/>
	<path class="st0" d="M-118.6,3.9c-13.3,0-24.1,10.8-24.1,24.1c0,2.2,1.8,4,4,4s4-1.8,4-4c0-8.9,7.2-16.1,16.1-16.1c2.2,0,4-1.8,4-4
		S-116.4,3.9-118.6,3.9z"/>
</g>
<circle class="st4" cx="-118.6" cy="184.1" r="34.3"/>
<line class="st4" x1="-94.3" y1="208.4" x2="-79.7" y2="223"/>
<path class="st4" d="M-118.6,164c-11.1,0-20.1,9-20.1,20.1"/>
</svg>
